<svg xmlns="http://www.w3.org/2000/svg" xmlns:xlink="http://www.w3.org/1999/xlink" width="1080" zoomAndPan="magnify" viewBox="0 0 810 809.999993" height="1080" preserveAspectRatio="xMidYMid meet" version="1.0"><defs><g/><clipPath id="1f598f5ba9"><path d="M 385 254.414062 L 439 254.414062 L 439 545 L 385 545 Z M 385 254.414062 " clip-rule="nonzero"/></clipPath><clipPath id="7f7767272c"><path d="M 389 534 L 475 534 L 475 555.914062 L 389 555.914062 Z M 389 534 " clip-rule="nonzero"/></clipPath></defs><rect x="-81" width="972" fill="#ffffff" y="-80.999999" height="971.999992" fill-opacity="1"/><rect x="-81" width="972" fill="#ffffff" y="-80.999999" height="971.999992" fill-opacity="1"/><g clip-path="url(#1f598f5ba9)"><path fill="#96a3b7" d="M 390.847656 254.929688 C 394.390625 254.40625 397.683594 256.867188 398.199219 260.414062 L 438.480469 536.640625 C 439 540.191406 436.542969 543.488281 433 544.007812 C 429.453125 544.527344 426.164062 542.070312 425.648438 538.519531 L 385.367188 262.289062 C 384.851562 258.738281 387.304688 255.445312 390.847656 254.929688 " fill-opacity="1" fill-rule="nonzero"/></g><path fill="#de1d25" d="M 406.769531 364.132812 C 366.683594 370.117188 326.222656 373.191406 285.695312 373.285156 L 285.570312 375.195312 C 285.320312 379.140625 281.699219 382.121094 277.484375 381.851562 L 251.140625 380.148438 C 246.929688 379.871094 243.722656 376.453125 243.976562 372.503906 L 244.039062 371.523438 C 243.074219 359.847656 254.679688 347.582031 262.089844 340.199219 C 271.183594 331.132812 281.328125 323.105469 291.753906 315.652344 C 307.320312 304.535156 323.816406 294.617188 340.953125 286.117188 C 356.855469 278.226562 375.003906 270.367188 392.71875 267.777344 C 410.4375 265.183594 430.074219 267.527344 447.5625 270.535156 C 470.867188 274.542969 493.976562 280.800781 515.988281 289.476562 C 526.964844 293.804688 537.921875 298.734375 547.808594 305.238281 C 552.492188 308.230469 556.875 311.617188 560.503906 315.863281 C 561.320312 316.816406 561.851562 317.984375 562.566406 319.015625 C 562.695312 319.195312 562.910156 319.308594 563.023438 319.5 C 563.929688 320.984375 565.449219 325.738281 565.515625 325.9375 C 566.914062 329.804688 564.832031 334.148438 560.871094 335.652344 L 536.082031 345.046875 C 532.117188 346.546875 527.777344 344.632812 526.378906 340.773438 L 525.421875 338.121094 C 498.429688 346.847656 470.625 352.722656 442.828125 358.144531 C 434.894531 359.625 426.925781 360.894531 418.976562 362.269531 L 406.769531 364.132812 " fill-opacity="1" fill-rule="nonzero"/><path fill="#f9b019" d="M 491.234375 358.949219 C 486.621094 360.066406 482 357.167969 480.914062 352.476562 L 480.371094 350.132812 C 456.785156 355.609375 469.289062 352.898438 442.828125 358.148438 C 434.898438 359.625 426.929688 360.898438 418.984375 362.273438 L 406.773438 364.136719 C 382.0625 367.953125 357.148438 370.109375 332.21875 371.828125 L 332.296875 373.199219 C 332.558594 377.75 328.953125 381.664062 324.242188 381.9375 L 294.785156 383.640625 C 290.078125 383.914062 286.042969 380.4375 285.78125 375.890625 L 285.632812 373.273438 L 285.601562 373.273438 C 285.703125 373.058594 285.527344 372.777344 285.59375 372.574219 C 285.800781 371.921875 286.121094 371.316406 286.328125 370.664062 C 286.949219 368.691406 287.453125 366.675781 288.046875 364.691406 C 292.96875 351.371094 301.410156 339.3125 310.285156 328.371094 C 320.546875 315.710938 332.179688 304.082031 344.796875 293.773438 C 353.367188 286.769531 362.496094 280.242188 372.328125 275.101562 C 378.683594 271.78125 385.566406 268.816406 392.722656 267.777344 C 399.882812 266.730469 407.324219 267.597656 414.367188 268.960938 C 425.25 271.074219 435.859375 274.714844 446.074219 278.96875 C 461.109375 285.242188 475.582031 293.050781 489.027344 302.246094 C 500.65625 310.191406 512.191406 319.332031 520.707031 330.6875 C 523.039062 334.003906 521.550781 331.832031 525.015625 337.324219 C 525.316406 337.492188 525.132812 337.398438 525.578125 337.59375 L 526.480469 341.480469 C 527.566406 346.167969 524.710938 350.875 520.097656 351.988281 L 491.234375 358.949219 " fill-opacity="1" fill-rule="nonzero"/><path fill="#377fb8" d="M 442.460938 367.84375 C 437.53125 368.769531 432.9375 366.238281 432.199219 362.199219 L 431.808594 360.046875 C 414.925781 362.972656 423.269531 361.613281 406.773438 364.136719 C 398.5 365.382812 390.214844 366.5 381.890625 367.339844 L 382.050781 368.839844 C 382.472656 372.730469 378.75 376.320312 373.730469 376.863281 L 342.367188 380.25 C 337.355469 380.796875 332.953125 378.082031 332.53125 374.199219 C 332.460938 373.523438 332.183594 372.839844 332.3125 372.175781 L 332.4375 371.847656 L 332.1875 371.867188 C 333.632812 357.324219 338.726562 343.488281 344.148438 330.039062 C 349.503906 317.3125 355.988281 304.964844 363.820312 293.585938 C 368.53125 286.738281 373.800781 279.980469 380.15625 274.554688 C 383.675781 271.542969 387.992188 268.464844 392.71875 267.777344 C 397.449219 267.082031 402.464844 268.796875 406.703125 270.671875 C 414.339844 274.054688 421.3125 279.023438 427.785156 284.234375 C 441.292969 295.117188 453.332031 308.039062 463.632812 321.980469 C 467.714844 327.65625 470.335938 331.121094 474.1875 337.761719 C 476.3125 341.425781 478.089844 345.285156 480.042969 349.042969 L 480.484375 350.191406 L 480.382812 350.210938 L 480.910156 353.109375 C 481.644531 357.144531 478.238281 361.164062 473.308594 362.085938 L 442.460938 367.84375 " fill-opacity="1" fill-rule="nonzero"/><path fill="#3db83d" d="M 392.328125 375.179688 C 387.285156 375.914062 382.75 373.457031 382.203125 369.6875 L 381.476562 364.730469 C 379.867188 363.929688 381.558594 363.648438 381.546875 363.113281 C 381.535156 362.550781 381.460938 361.992188 381.421875 361.433594 C 381.304688 357.476562 381.0625 353.519531 381.070312 349.5625 C 381.09375 337.273438 381.488281 331.351562 382.0625 319.878906 C 382.769531 307.796875 383.984375 295.558594 386.328125 283.671875 C 386.964844 280.453125 387.878906 276.410156 389.003906 273.257812 C 389.464844 271.957031 390.714844 268.0625 392.71875 267.773438 C 394.726562 267.480469 397.039062 270.851562 397.851562 271.960938 C 399.828125 274.664062 401.863281 278.273438 403.386719 281.183594 C 411.652344 296.898438 418.636719 315.785156 423.988281 332.523438 C 426.492188 339.972656 428.472656 347.566406 430.429688 355.175781 C 430.699219 356.222656 431.058594 355.996094 431.308594 357.441406 C 431.597656 359.089844 431.792969 360.753906 432.035156 362.40625 C 432.582031 366.175781 428.9375 369.824219 423.890625 370.5625 L 392.328125 375.179688 " fill-opacity="1" fill-rule="nonzero"/><g clip-path="url(#7f7767272c)"><path fill="#ecbd5c" d="M 432.300781 555.910156 C 423.246094 555.886719 414.179688 555.671875 405.152344 554.886719 C 401.082031 554.53125 395.472656 554.09375 391.539062 552.753906 C 390.9375 552.546875 390.40625 552.167969 389.839844 551.875 L 389.621094 551.417969 L 389.785156 551.0625 L 389.621094 551.0625 C 390.671875 549.695312 391.558594 548.183594 392.773438 546.957031 C 397.675781 542.023438 404.3125 538.957031 410.871094 537 C 417.8125 534.933594 425.074219 534.015625 432.300781 534.015625 C 433.835938 534.015625 435.367188 534.015625 436.898438 534.144531 C 439.828125 534.386719 442.769531 534.632812 445.667969 535.125 C 454.882812 536.6875 465.078125 540.152344 471.828125 546.957031 C 473.046875 548.183594 473.929688 549.695312 474.980469 551.0625 L 474.816406 551.0625 L 474.980469 551.417969 L 474.761719 551.875 C 474.195312 552.167969 473.664062 552.546875 473.0625 552.753906 C 469.136719 554.09375 463.523438 554.53125 459.453125 554.886719 C 451.867188 555.542969 444.273438 555.722656 436.664062 555.886719 L 432.300781 555.910156 " fill-opacity="1" fill-rule="nonzero"/></g><g fill="#000000" fill-opacity="1"><g transform="translate(309.222644, 419.999999)"><g><path d="M 16.96875 0 L 10.15625 0 L 0.515625 -28.5625 L 6.5 -28.5625 L 13.4375 -7.265625 L 13.921875 -7.265625 L 20.765625 -28.5625 L 26.609375 -28.5625 Z M 16.96875 0 "/></g></g></g><g fill="#000000" fill-opacity="1"><g transform="translate(336.32937, 419.999999)"><g><path d="M 8.40625 0.40625 C 7.019531 0.40625 5.816406 0.15625 4.796875 -0.34375 C 3.785156 -0.851562 3.003906 -1.597656 2.453125 -2.578125 C 1.910156 -3.566406 1.640625 -4.753906 1.640625 -6.140625 C 1.640625 -7.410156 1.910156 -8.476562 2.453125 -9.34375 C 3.003906 -10.207031 3.851562 -10.914062 5 -11.46875 C 6.144531 -12.03125 7.644531 -12.457031 9.5 -12.75 C 10.78125 -12.957031 11.753906 -13.1875 12.421875 -13.4375 C 13.097656 -13.6875 13.550781 -13.96875 13.78125 -14.28125 C 14.019531 -14.59375 14.140625 -14.988281 14.140625 -15.46875 C 14.140625 -16.15625 13.898438 -16.679688 13.421875 -17.046875 C 12.941406 -17.410156 12.140625 -17.59375 11.015625 -17.59375 C 9.816406 -17.59375 8.675781 -17.328125 7.59375 -16.796875 C 6.519531 -16.265625 5.582031 -15.5625 4.78125 -14.6875 L 4.390625 -14.6875 L 2.125 -18.109375 C 3.21875 -19.316406 4.550781 -20.257812 6.125 -20.9375 C 7.707031 -21.613281 9.429688 -21.953125 11.296875 -21.953125 C 14.140625 -21.953125 16.195312 -21.347656 17.46875 -20.140625 C 18.75 -18.929688 19.390625 -17.210938 19.390625 -14.984375 L 19.390625 -5.625 C 19.390625 -4.664062 19.816406 -4.1875 20.671875 -4.1875 C 20.992188 -4.1875 21.3125 -4.242188 21.625 -4.359375 L 21.890625 -4.28125 L 22.28125 -0.515625 C 21.988281 -0.316406 21.570312 -0.15625 21.03125 -0.03125 C 20.5 0.09375 19.914062 0.15625 19.28125 0.15625 C 17.988281 0.15625 16.976562 -0.0859375 16.25 -0.578125 C 15.53125 -1.078125 15.015625 -1.851562 14.703125 -2.90625 L 14.296875 -2.953125 C 13.242188 -0.710938 11.28125 0.40625 8.40625 0.40625 Z M 10.125 -3.640625 C 11.375 -3.640625 12.367188 -4.054688 13.109375 -4.890625 C 13.859375 -5.734375 14.234375 -6.90625 14.234375 -8.40625 L 14.234375 -10.59375 L 13.875 -10.671875 C 13.539062 -10.410156 13.109375 -10.191406 12.578125 -10.015625 C 12.054688 -9.835938 11.300781 -9.664062 10.3125 -9.5 C 9.144531 -9.300781 8.300781 -8.960938 7.78125 -8.484375 C 7.269531 -8.015625 7.015625 -7.34375 7.015625 -6.46875 C 7.015625 -5.539062 7.285156 -4.835938 7.828125 -4.359375 C 8.378906 -3.878906 9.144531 -3.640625 10.125 -3.640625 Z M 10.125 -3.640625 "/></g></g></g><g fill="#000000" fill-opacity="1"><g transform="translate(359.042, 419.999999)"><g><path d="M 12.5625 0.40625 C 10.476562 0.40625 8.632812 -0.0234375 7.03125 -0.890625 C 5.425781 -1.753906 4.175781 -3.023438 3.28125 -4.703125 C 2.382812 -6.390625 1.9375 -8.410156 1.9375 -10.765625 C 1.9375 -13.128906 2.382812 -15.148438 3.28125 -16.828125 C 4.175781 -18.515625 5.414062 -19.789062 7 -20.65625 C 8.59375 -21.519531 10.414062 -21.953125 12.46875 -21.953125 C 17.007812 -21.953125 19.914062 -20.304688 21.1875 -17.015625 L 17.484375 -14.359375 L 17.078125 -14.359375 C 16.628906 -15.367188 16.050781 -16.117188 15.34375 -16.609375 C 14.632812 -17.109375 13.675781 -17.359375 12.46875 -17.359375 C 10.90625 -17.359375 9.6875 -16.816406 8.8125 -15.734375 C 7.9375 -14.660156 7.5 -13.003906 7.5 -10.765625 C 7.5 -8.546875 7.941406 -6.894531 8.828125 -5.8125 C 9.710938 -4.726562 10.957031 -4.1875 12.5625 -4.1875 C 13.726562 -4.1875 14.71875 -4.5 15.53125 -5.125 C 16.351562 -5.757812 16.9375 -6.671875 17.28125 -7.859375 L 17.703125 -7.890625 L 21.546875 -5.78125 C 20.992188 -3.957031 19.976562 -2.46875 18.5 -1.3125 C 17.03125 -0.164062 15.050781 0.40625 12.5625 0.40625 Z M 12.5625 0.40625 "/></g></g></g><g fill="#000000" fill-opacity="1"><g transform="translate(381.246867, 419.999999)"><g><path d="M 27.40625 0 L 21.46875 0 L 19.3125 -6.578125 L 8.375 -6.578125 L 6.234375 0 L 0.4375 0 L 10.296875 -28.5625 L 17.546875 -28.5625 Z M 13.578125 -22.59375 L 9.90625 -11.328125 L 17.75 -11.328125 L 14.0625 -22.59375 Z M 13.578125 -22.59375 "/></g></g></g><g fill="#000000" fill-opacity="1"><g transform="translate(409.076185, 419.999999)"><g><path d="M 9.359375 0 L 3.71875 0 L 3.71875 -28.5625 L 9.359375 -28.5625 Z M 9.359375 0 "/></g></g></g><g fill="#000000" fill-opacity="1"><g transform="translate(422.160844, 419.999999)"><g><path d="M 14.859375 -5.140625 L 16.265625 -1.140625 C 15.679688 -0.648438 14.945312 -0.269531 14.0625 0 C 13.175781 0.269531 12.175781 0.40625 11.0625 0.40625 C 8.726562 0.40625 6.953125 -0.226562 5.734375 -1.5 C 4.523438 -2.769531 3.921875 -4.613281 3.921875 -7.03125 L 3.921875 -17.265625 L 0.640625 -17.265625 L 0.640625 -21.5625 L 3.921875 -21.5625 L 3.921875 -25.765625 L 9.34375 -26.640625 L 9.34375 -21.5625 L 15.453125 -21.5625 L 15.453125 -17.265625 L 9.34375 -17.265625 L 9.34375 -7.421875 C 9.34375 -6.359375 9.5625 -5.582031 10 -5.09375 C 10.445312 -4.601562 11.09375 -4.359375 11.9375 -4.359375 C 12.894531 -4.359375 13.734375 -4.617188 14.453125 -5.140625 Z M 14.859375 -5.140625 "/></g></g></g><g fill="#000000" fill-opacity="1"><g transform="translate(438.897495, 419.999999)"><g><path d="M 5.796875 -24.125 C 4.828125 -24.125 4.035156 -24.421875 3.421875 -25.015625 C 2.804688 -25.609375 2.5 -26.375 2.5 -27.3125 C 2.5 -28.226562 2.804688 -28.984375 3.421875 -29.578125 C 4.035156 -30.171875 4.828125 -30.46875 5.796875 -30.46875 C 6.453125 -30.46875 7.03125 -30.332031 7.53125 -30.0625 C 8.039062 -29.789062 8.4375 -29.414062 8.71875 -28.9375 C 9 -28.457031 9.140625 -27.914062 9.140625 -27.3125 C 9.140625 -26.695312 9 -26.144531 8.71875 -25.65625 C 8.4375 -25.175781 8.039062 -24.800781 7.53125 -24.53125 C 7.03125 -24.257812 6.453125 -24.125 5.796875 -24.125 Z M 3.109375 0 L 3.109375 -21.546875 L 8.515625 -21.546875 L 8.515625 0 Z M 3.109375 0 "/></g></g></g><g fill="#000000" fill-opacity="1"><g transform="translate(450.497924, 419.999999)"><g><path d="M 12.515625 0.40625 C 10.410156 0.40625 8.5625 -0.0234375 6.96875 -0.890625 C 5.375 -1.753906 4.132812 -3.019531 3.25 -4.6875 C 2.375 -6.363281 1.9375 -8.390625 1.9375 -10.765625 C 1.9375 -13.128906 2.375 -15.148438 3.25 -16.828125 C 4.132812 -18.515625 5.375 -19.789062 6.96875 -20.65625 C 8.5625 -21.519531 10.410156 -21.953125 12.515625 -21.953125 C 14.628906 -21.953125 16.484375 -21.519531 18.078125 -20.65625 C 19.671875 -19.789062 20.910156 -18.515625 21.796875 -16.828125 C 22.679688 -15.148438 23.125 -13.128906 23.125 -10.765625 C 23.125 -8.390625 22.679688 -6.363281 21.796875 -4.6875 C 20.910156 -3.019531 19.671875 -1.753906 18.078125 -0.890625 C 16.484375 -0.0234375 14.628906 0.40625 12.515625 0.40625 Z M 12.515625 -4.1875 C 15.867188 -4.1875 17.546875 -6.378906 17.546875 -10.765625 C 17.546875 -13.046875 17.113281 -14.710938 16.25 -15.765625 C 15.394531 -16.828125 14.148438 -17.359375 12.515625 -17.359375 C 9.171875 -17.359375 7.5 -15.160156 7.5 -10.765625 C 7.5 -6.378906 9.171875 -4.1875 12.515625 -4.1875 Z M 12.515625 -4.1875 "/></g></g></g><g fill="#000000" fill-opacity="1"><g transform="translate(475.53454, 419.999999)"><g><path d="M 3.109375 0 L 3.109375 -21.546875 L 8.296875 -21.546875 L 8.296875 -18.375 L 8.71875 -18.28125 C 10.050781 -20.726562 12.222656 -21.953125 15.234375 -21.953125 C 17.722656 -21.953125 19.550781 -21.273438 20.71875 -19.921875 C 21.882812 -18.566406 22.46875 -16.59375 22.46875 -14 L 22.46875 0 L 17.046875 0 L 17.046875 -13.34375 C 17.046875 -14.769531 16.757812 -15.800781 16.1875 -16.4375 C 15.613281 -17.070312 14.695312 -17.390625 13.4375 -17.390625 C 11.882812 -17.390625 10.675781 -16.882812 9.8125 -15.875 C 8.945312 -14.875 8.515625 -13.300781 8.515625 -11.15625 L 8.515625 0 Z M 3.109375 0 "/></g></g></g></svg>